{"title":"24 S09E12 SUB-ESP Subtitulado 1080p-McFly-H264.MP4","uid":10599526,"size":911115318,"categoryP":"video","categoryS":"hd___tv_shows","magnet":"?xt=urn:btih:4fc40bc1d668642d7472ae75dd3882e0b05f6988&amp;dn=24+S09E12+SUB-ESP+Subtitulado+1080p-McFly-H264.MP4&amp;tr=udp%3A%2F%2Ftracker.openbittorrent.com%3A80&amp;tr=udp%3A%2F%2Fopen.demonii.com%3A1337&amp;tr=udp%3A%2F%2Ftracker.coppersurfer.tk%3A6969&amp;tr=udp%3A%2F%2Fexodus.desync.com%3A6969","seeders":1,"leechers":0,"uploader":"gunsnik","files":1,"time":1405900254,"description":"General\nUnique ID                                : 170780140095209598727689750760407931932 (0x807B0EFE8C675BA19F5544DD71679C1C)\nComplete name                            : D:BAJADOS2424.S09E12.1080p.h264-McFLY.mkv\nFormat                                   : Matroska\nFormat version                           : Version 4 / Version 2\nFile size                                : 869 MiB\nDuration                                 : 42mn 58s\nOverall bit rate                         : 2 827 Kbps\nEncoded date                             : UTC 2014-07-20 21:13:30\nWriting application                      : mkvmerge v7.0.0 ('Where We Going') 64bit built on Jun  9 2014 15:16:27\nWriting library                          : libebml v1.3.0 + libmatroska v1.4.1\nDURATION                                 : 00:42:57.864000000\nNUMBER_OF_FRAMES                         : 107411\nNUMBER_OF_BYTES                          : 72180192\n_STATISTICS_WRITING_APP                  : mkvmerge v7.0.0 ('Where We Going') 64bit built on Jun  9 2014 15:16:27\n_STATISTICS_WRITING_DATE_UTC             : 2014-07-20 21:13:30\n_STATISTICS_TAGS                         : BPS DURATION NUMBER_OF_FRAMES NUMBER_OF_BYTES\n\nVideo\nID                                       : 1\nFormat                                   : AVC\nFormat/Info                              : Advanced Video Codec\nFormat profile                           : &lt;a class=&quot;__cf_email__&quot; href=&quot;/cdn-cgi/l/email-protection&quot; data-cfemail=&quot;c58daca2ad8589f1ebf5&quot;&gt;[email&amp;#160;protected]&lt;/a&gt;&lt;script cf-hash='f9e31' type=&quot;text/javascript&quot;&gt;\n/* &lt;![CDATA[ */!function(){try{var t=&quot;currentScript&quot;in document?document.currentScript:function(){for(var t=document.getElementsByTagName(&quot;script&quot;),e=t.length;e--;)if(t[e].getAttribute(&quot;cf-hash&quot;))return t[e]}();if(t&amp;&amp;t.previousSibling){var e,r,n,i,c=t.previousSibling,a=c.getAttribute(&quot;data-cfemail&quot;);if(a){for(e=&quot;&quot;,r=parseInt(a.substr(0,2),16),n=2;a.length-n;n+=2)i=parseInt(a.substr(n,2),16)^r,e+=String.fromCharCode(i);e=document.createTextNode(e),c.parentNode.replaceChild(e,c)}}}catch(u){}}();/* ]]&gt; */&lt;/script&gt;\nFormat settings, CABAC                   : Yes\nFormat settings, ReFrames                : 4 frames\nFormat settings, GOP                     : M=8, N=32\nCodec ID                                 : V_MPEG4/ISO/AVC\nDuration                                 : 42mn 58s\nBit rate                                 : 2 547 Kbps\nWidth                                    : 1 920 pixels\nHeight                                   : 1 080 pixels\nDisplay aspect ratio                     : 16:9\nFrame rate                               : 29.970 fps\nStandard                                 : Component\nColor space                              : YUV\nChroma subsampling                       : 4:2:0\nBit depth                                : 8 bits\nScan type                                : MBAFF\nBits/(Pixel*Frame)                       : 0.041\nStream size                              : 783 MiB (90%)\nDefault                                  : Yes\nForced                                   : No\nColor primaries                          : BT.709-5, BT.1361, IEC 61966-2-4, SMPTE RP177\nTransfer characteristics                 : BT.709-5, BT.1361\nMatrix coefficients                      : BT.709-5, BT.1361, IEC 61966-2-4 709, SMPTE RP177\n\nAudio\nID                                       : 2\nFormat                                   : MPEG Audio\nFormat version                           : Version 1\nFormat profile                           : Layer 3\nCodec ID                                 : A_MPEG/L3\nCodec ID/Hint                            : MP3\nDuration                                 : 42mn 58s\nBit rate mode                            : Constant\nBit rate                                 : 224 Kbps\nChannel(s)                               : 2 channels\nSampling rate                            : 48.0 KHz\nCompression mode                         : Lossy\nDelay relative to video                  : 234ms\nStream size                              : 68.8 MiB (8%)\nWriting library                          : LAME3.99\nDefault                                  : Yes\nForced                                   : No\n\n\nCapturas: &lt;a href=&quot;\nhttp://i39.servimg.com/u/f39/11/56/14/72/24_s0938.jpg&quot; rel=&quot;nofollow&quot; target=&quot;_NEW&quot;&gt;\nhttp://i39.servimg.com/u/f39/11/56/14/72/24_s0938.jpg&lt;/a&gt; &lt;a href=&quot;\nhttp://i39.servimg.com/u/f39/11/56/14/72/24_s0939.jpg&quot; rel=&quot;nofollow&quot; target=&quot;_NEW&quot;&gt;\nhttp://i39.servimg.com/u/f39/11/56/14/72/24_s0939.jpg&lt;/a&gt; &lt;a href=&quot;\nhttp://i39.servimg.com/u/f39/11/56/14/72/24_s0940.jpg&quot; rel=&quot;nofollow&quot; target=&quot;_NEW&quot;&gt;\nhttp://i39.servimg.com/u/f39/11/56/14/72/24_s0940.jpg&lt;/a&gt; &lt;a href=&quot;\nhttp://i39.servimg.com/u/f39/11/56/14/72/24_s0941.jpg&quot; rel=&quot;nofollow&quot; target=&quot;_NEW&quot;&gt;\nhttp://i39.servimg.com/u/f39/11/56/14/72/24_s0941.jpg&lt;/a&gt;","torrent":{"xt":"urn:btih:4fc40bc1d668642d7472ae75dd3882e0b05f6988","amp;dn":"24+S09E12+SUB-ESP+Subtitulado+1080p-McFly-H264.MP4","amp;tr":["udp%3A%2F%2Ftracker.openbittorrent.com%3A80","udp%3A%2F%2Fopen.demonii.com%3A1337","udp%3A%2F%2Ftracker.coppersurfer.tk%3A6969","udp%3A%2F%2Fexodus.desync.com%3A6969"],"infoHash":"4fc40bc1d668642d7472ae75dd3882e0b05f6988","infoHashBuffer":{"type":"Buffer","data":[79,196,11,193,214,104,100,45,116,114,174,117,221,56,130,224,176,95,105,136]},"announce":[],"urlList":[]}}